<svg xmlns="http://www.w3.org/2000/svg" width="512" height="512" viewBox="0 0 512 512">
  <defs>
    <radialGradient id="bg" cx="50%" cy="50%" r="50%">
      <stop offset="0%" stop-color="#1e0a0a"/>
      <stop offset="100%" stop-color="#0d0505"/>
    </radialGradient>
    <linearGradient id="gold" x1="0%" y1="0%" x2="100%" y2="100%">
      <stop offset="0%" stop-color="#ffe066"/>
      <stop offset="50%" stop-color="#f5a623"/>
      <stop offset="100%" stop-color="#c47f0d"/>
    </linearGradient>
    <linearGradient id="red" x1="0%" y1="0%" x2="100%" y2="100%">
      <stop offset="0%" stop-color="#ff6b6b"/>
      <stop offset="100%" stop-color="#8b0000"/>
    </linearGradient>
    <filter id="glow">
      <feDropShadow dx="0" dy="0" stdDeviation="6" flood-color="#f5a623" flood-opacity="0.55"/>
    </filter>
  </defs>
  <circle cx="256" cy="256" r="256" fill="url(#bg)"/>
  <circle cx="256" cy="256" r="240" fill="none" stroke="url(#gold)" stroke-width="8"/>
  <circle cx="256" cy="256" r="220" fill="none" stroke="#f5a623" stroke-width="1.5" stroke-opacity="0.3"/>
  <polygon points="256,26 264,52 256,46 248,52" fill="#f5a623" opacity="0.9"/>
  <polygon points="256,486 264,460 256,466 248,460" fill="#f5a623" opacity="0.9"/>
  <polygon points="26,256 52,248 46,256 52,264" fill="#f5a623" opacity="0.9"/>
  <polygon points="486,256 460,248 466,256 460,264" fill="#f5a623" opacity="0.9"/>
  <g fill="#f5a623" opacity="0.4">
    <polygon points="82,82 90,96 82,90 74,96"/>
    <polygon points="430,82 438,96 430,90 422,96"/>
    <polygon points="82,430 90,416 82,422 74,416"/>
    <polygon points="430,430 438,416 430,422 422,416"/>
  </g>
  <g stroke="#8b0000" stroke-width="0.8" opacity="0.1">
    <line x1="0" y1="128" x2="512" y2="128"/>
    <line x1="0" y1="256" x2="512" y2="256"/>
    <line x1="0" y1="384" x2="512" y2="384"/>
    <line x1="128" y1="0" x2="128" y2="512"/>
    <line x1="256" y1="0" x2="256" y2="512"/>
    <line x1="384" y1="0" x2="384" y2="512"/>
  </g>
  <circle cx="256" cy="256" r="170" fill="#180808" fill-opacity="0.85"/>
  <text x="256" y="198" font-family="Arial,sans-serif" font-size="17" font-weight="500" text-anchor="middle" fill="#f5a623" fill-opacity="0.7" letter-spacing="5">OFFICIAL</text>
  <text x="256" y="268" font-family="'Arial Black',Arial,sans-serif" font-size="120" font-weight="900" text-anchor="middle" fill="url(#gold)" filter="url(#glow)" letter-spacing="-6">5555</text>
  <text x="256" y="314" font-family="Arial,sans-serif" font-size="28" font-weight="700" text-anchor="middle" fill="url(#red)" letter-spacing="12">BET</text>
  <line x1="186" y1="326" x2="326" y2="326" stroke="#f5a623" stroke-width="1.5" stroke-opacity="0.4"/>
  <text x="256" y="352" font-family="Arial,sans-serif" font-size="16" text-anchor="middle" fill="#8a90a4" letter-spacing="4">EARN &amp; WIN</text>
</svg>